<svg width="1139" height="269" viewBox="0 0 1139 269" fill="none" xmlns="http://www.w3.org/2000/svg">
<path d="M298.74 14.96H360.5L458.78 141.22V14.96H524.3V253.81H466.3L364.3 122.81V253.81H298.74V14.96Z" fill="#DBDBDB"/>
<path d="M559.79 14.96H751.91V71.26H625.31V107.43H740V159.64H625.31V197.52H753.61V253.81H559.79V14.96Z" fill="#DBDBDB"/>
<path d="M1066.38 14.96H1138.92V253.96H1066.38V14.96Z" fill="#DBDBDB"/>
<path d="M1138.92 14.96H1066.38V87.5H1138.92V14.96Z" fill="#F23DE9"/>
<path d="M135.19 268.72C209.395 268.72 269.55 208.565 269.55 134.36C269.55 60.155 209.395 0 135.19 0C60.9851 0 0.830078 60.155 0.830078 134.36C0.830078 208.565 60.9851 268.72 135.19 268.72Z" fill="#DBDBDB"/>
<path d="M135.19 199.54C171.188 199.54 200.37 170.358 200.37 134.36C200.37 98.362 171.188 69.1799 135.19 69.1799C99.1918 69.1799 70.0098 98.362 70.0098 134.36C70.0098 170.358 99.1918 199.54 135.19 199.54Z" fill="#4D4DFF"/>
<path d="M966.45 254.55H1043.83L910.15 17.1699L871.46 85.8699L966.45 254.55Z" fill="#DBDBDB"/>
<path d="M851.62 126.29L780.1 254.55H923.45L851.62 126.29Z" fill="#0DDDDD"/>
</svg>
