<svg width="253" height="60" viewBox="0 0 253 60" fill="none" xmlns="http://www.w3.org/2000/svg">
<g clip-path="url(#clip0_3007_3408)">
<path d="M66.3574 3.33691H80.0758L101.906 31.499V3.33691H116.46V56.612H103.577L80.9199 27.3927V56.612H66.3574V3.33691Z" fill="#DBDBDB"/>
<path d="M124.343 3.33691H167.017V15.8945H138.896V23.9622H164.372V35.6075H138.896V44.0566H167.395V56.612H124.343V3.33691Z" fill="#DBDBDB"/>
<path d="M236.869 3.33691H252.982V56.6455H236.869V3.33691Z" fill="#DBDBDB"/>
<path d="M252.982 3.33691H236.869V19.5168H252.982V3.33691Z" fill="#F23DE9"/>
<path d="M30.0292 59.9375C46.512 59.9375 59.8739 46.5201 59.8739 29.9688C59.8739 13.4175 46.512 0 30.0292 0C13.5465 0 0.18457 13.4175 0.18457 29.9688C0.18457 46.5201 13.5465 59.9375 30.0292 59.9375Z" fill="#DBDBDB"/>
<path d="M30.0289 44.5073C38.025 44.5073 44.507 37.9983 44.507 29.969C44.507 21.9397 38.025 15.4307 30.0289 15.4307C22.0328 15.4307 15.5508 21.9397 15.5508 29.969C15.5508 37.9983 22.0328 44.5073 30.0289 44.5073Z" fill="#4D4DFF"/>
<path d="M214.673 56.7768H231.861L202.167 3.82959L193.573 19.153L214.673 56.7768Z" fill="#DBDBDB"/>
<path d="M189.166 28.1689L173.279 56.7771H205.121L189.166 28.1689Z" fill="#0DDDDD"/>
</g>
<defs>
<clipPath id="clip0_3007_3408">
<rect width="253" height="60" fill="white"/>
</clipPath>
</defs>
</svg>
